<svg xmlns="http://www.w3.org/2000/svg" xmlns:xlink="http://www.w3.org/1999/xlink" width="500" zoomAndPan="magnify" viewBox="0 0 375 112.499997" height="150" preserveAspectRatio="xMidYMid meet" version="1.0"><defs><clipPath id="1e777cc1a1"><path d="M 0.828125 0 L 374.167969 0 L 374.167969 112.003906 L 0.828125 112.003906 Z M 0.828125 0 " clip-rule="nonzero"/></clipPath></defs><g clip-path="url(#1e777cc1a1)"><path fill="#ffffff" d="M 0.828125 0 L 374.171875 0 L 374.171875 112.003906 L 0.828125 112.003906 Z M 0.828125 0 " fill-opacity="1" fill-rule="nonzero"/><path fill="#ffffff" d="M 0.828125 0 L 374.171875 0 L 374.171875 112.003906 L 0.828125 112.003906 Z M 0.828125 0 " fill-opacity="1" fill-rule="nonzero"/><rect x="-37.5" width="450" fill="#181547" y="-11.25" height="134.999996" fill-opacity="1"/></g><path fill="#ffffff" d="M 53.425781 93.609375 C 52.0625 93.609375 50.847656 93.367188 49.679688 92.882812 C 48.515625 92.394531 47.542969 91.714844 46.667969 90.886719 C 45.792969 90.011719 45.160156 89.042969 44.675781 87.875 C 44.1875 86.707031 43.996094 85.492188 43.996094 84.179688 C 43.996094 82.867188 44.238281 81.605469 44.675781 80.488281 C 45.113281 79.320312 45.792969 78.347656 46.667969 77.472656 C 47.542969 76.597656 48.515625 75.96875 49.679688 75.480469 C 50.800781 74.996094 52.0625 74.753906 53.425781 74.753906 C 54.882812 74.753906 56.195312 74.996094 57.3125 75.480469 C 58.429688 75.96875 59.402344 76.597656 60.277344 77.472656 L 57.894531 79.855469 C 57.410156 79.320312 56.777344 78.882812 56.046875 78.542969 C 55.320312 78.25 54.445312 78.058594 53.472656 78.058594 C 52.597656 78.058594 51.820312 78.203125 51.140625 78.496094 C 50.410156 78.785156 49.828125 79.222656 49.292969 79.757812 C 48.757812 80.292969 48.371094 80.972656 48.078125 81.703125 C 47.785156 82.480469 47.640625 83.304688 47.640625 84.179688 C 47.640625 85.105469 47.785156 85.929688 48.078125 86.707031 C 48.371094 87.4375 48.757812 88.117188 49.292969 88.652344 C 49.828125 89.1875 50.410156 89.625 51.140625 89.917969 C 51.867188 90.207031 52.644531 90.355469 53.472656 90.355469 C 54.492188 90.355469 55.367188 90.207031 56.144531 89.867188 C 56.875 89.574219 57.507812 89.089844 57.992188 88.554688 L 60.375 90.9375 C 59.5 91.8125 58.527344 92.445312 57.410156 92.929688 C 56.242188 93.367188 54.929688 93.609375 53.425781 93.609375 Z M 53.425781 93.609375 " fill-opacity="1" fill-rule="nonzero"/><path fill="#ffffff" d="M 81.566406 93.660156 C 80.203125 93.660156 78.988281 93.414062 77.824219 92.929688 C 76.65625 92.445312 75.636719 91.761719 74.808594 90.886719 C 73.933594 90.011719 73.253906 88.992188 72.769531 87.875 C 72.28125 86.707031 72.039062 85.492188 72.039062 84.132812 C 72.039062 82.820312 72.28125 81.554688 72.769531 80.4375 C 73.253906 79.320312 73.933594 78.300781 74.761719 77.425781 C 75.636719 76.550781 76.609375 75.871094 77.773438 75.433594 C 78.941406 74.945312 80.15625 74.703125 81.515625 74.703125 C 82.878906 74.703125 84.140625 74.945312 85.257812 75.433594 C 86.425781 75.917969 87.398438 76.597656 88.273438 77.425781 C 89.148438 78.300781 89.828125 79.273438 90.3125 80.4375 C 90.800781 81.605469 91.042969 82.820312 91.042969 84.132812 C 91.042969 85.445312 90.800781 86.707031 90.3125 87.828125 C 89.828125 88.992188 89.148438 89.964844 88.273438 90.839844 C 87.398438 91.714844 86.425781 92.394531 85.257812 92.882812 C 84.191406 93.414062 82.925781 93.660156 81.566406 93.660156 Z M 81.515625 90.304688 C 82.683594 90.304688 83.753906 90.0625 84.578125 89.527344 C 85.453125 88.992188 86.132812 88.265625 86.621094 87.339844 C 87.105469 86.417969 87.347656 85.347656 87.347656 84.082031 C 87.347656 83.160156 87.203125 82.335938 86.910156 81.605469 C 86.621094 80.875 86.230469 80.195312 85.695312 79.660156 C 85.160156 79.125 84.578125 78.6875 83.851562 78.398438 C 83.121094 78.105469 82.34375 77.960938 81.46875 77.960938 C 80.300781 77.960938 79.28125 78.203125 78.40625 78.738281 C 77.53125 79.273438 76.851562 79.953125 76.363281 80.875 C 75.878906 81.800781 75.636719 82.867188 75.636719 84.082031 C 75.636719 85.007812 75.78125 85.832031 76.074219 86.609375 C 76.363281 87.390625 76.753906 88.019531 77.289062 88.554688 C 77.824219 89.089844 78.40625 89.527344 79.136719 89.820312 C 79.914062 90.160156 80.691406 90.304688 81.515625 90.304688 Z M 81.515625 90.304688 " fill-opacity="1" fill-rule="nonzero"/><path fill="#ffffff" d="M 104.796875 93.367188 L 104.796875 74.996094 L 108.347656 74.996094 L 108.347656 93.367188 Z M 107.421875 85.6875 L 107.421875 82.917969 L 111.699219 82.917969 C 112.574219 82.917969 113.253906 82.675781 113.742188 82.238281 C 114.226562 81.800781 114.46875 81.167969 114.46875 80.390625 C 114.46875 79.660156 114.226562 79.078125 113.742188 78.589844 C 113.253906 78.105469 112.574219 77.863281 111.699219 77.863281 L 107.421875 77.863281 L 107.421875 74.945312 L 111.992188 74.945312 C 113.15625 74.945312 114.226562 75.1875 115.101562 75.625 C 115.976562 76.113281 116.707031 76.746094 117.191406 77.523438 C 117.679688 78.300781 117.921875 79.222656 117.921875 80.292969 C 117.921875 81.363281 117.679688 82.335938 117.191406 83.113281 C 116.707031 83.890625 115.976562 84.519531 115.101562 84.957031 C 114.179688 85.394531 113.15625 85.640625 111.941406 85.640625 L 107.421875 85.640625 Z M 114.808594 93.367188 L 108.734375 85.445312 L 111.992188 84.425781 L 119.085938 93.367188 Z M 114.808594 93.367188 " fill-opacity="1" fill-rule="nonzero"/><path fill="#ffffff" d="M 132.0625 93.367188 L 132.0625 74.996094 L 135.613281 74.996094 L 135.613281 93.367188 Z M 134.6875 86.515625 L 134.6875 83.597656 L 138.964844 83.597656 C 139.5 83.597656 140.035156 83.5 140.472656 83.257812 C 140.910156 83.015625 141.300781 82.722656 141.542969 82.285156 C 141.785156 81.847656 141.929688 81.363281 141.929688 80.730469 C 141.929688 80.148438 141.785156 79.613281 141.542969 79.175781 C 141.300781 78.738281 140.910156 78.398438 140.472656 78.203125 C 140.035156 77.960938 139.5 77.863281 138.964844 77.863281 L 134.6875 77.863281 L 134.6875 74.945312 L 139.304688 74.945312 C 140.472656 74.945312 141.542969 75.1875 142.464844 75.675781 C 143.390625 76.160156 144.117188 76.792969 144.652344 77.667969 C 145.1875 78.542969 145.480469 79.5625 145.480469 80.730469 C 145.480469 81.898438 145.1875 82.917969 144.652344 83.792969 C 144.117188 84.667969 143.390625 85.296875 142.464844 85.785156 C 141.542969 86.269531 140.472656 86.515625 139.304688 86.515625 Z M 134.6875 86.515625 " fill-opacity="1" fill-rule="nonzero"/><path fill="#ffffff" d="M 167.640625 93.660156 C 166.28125 93.660156 165.066406 93.414062 163.898438 92.929688 C 162.734375 92.445312 161.710938 91.761719 160.886719 90.886719 C 160.011719 90.011719 159.332031 88.992188 158.84375 87.875 C 158.359375 86.707031 158.117188 85.492188 158.117188 84.132812 C 158.117188 82.820312 158.359375 81.554688 158.84375 80.4375 C 159.332031 79.320312 160.011719 78.300781 160.835938 77.425781 C 161.710938 76.550781 162.683594 75.871094 163.851562 75.433594 C 165.015625 74.945312 166.234375 74.703125 167.59375 74.703125 C 168.953125 74.703125 170.21875 74.945312 171.335938 75.433594 C 172.503906 75.917969 173.472656 76.597656 174.347656 77.425781 C 175.222656 78.300781 175.90625 79.273438 176.390625 80.4375 C 176.875 81.605469 177.121094 82.820312 177.121094 84.132812 C 177.121094 85.445312 176.875 86.707031 176.390625 87.828125 C 175.90625 88.992188 175.222656 89.964844 174.347656 90.839844 C 173.472656 91.714844 172.503906 92.394531 171.335938 92.882812 C 170.21875 93.414062 169.003906 93.660156 167.640625 93.660156 Z M 167.59375 90.304688 C 168.761719 90.304688 169.828125 90.0625 170.65625 89.527344 C 171.53125 88.992188 172.210938 88.265625 172.695312 87.339844 C 173.183594 86.417969 173.425781 85.347656 173.425781 84.082031 C 173.425781 83.160156 173.28125 82.335938 172.988281 81.605469 C 172.695312 80.875 172.308594 80.195312 171.773438 79.660156 C 171.238281 79.125 170.65625 78.6875 169.925781 78.398438 C 169.199219 78.105469 168.417969 77.960938 167.542969 77.960938 C 166.378906 77.960938 165.359375 78.203125 164.484375 78.738281 C 163.609375 79.273438 162.925781 79.953125 162.441406 80.875 C 161.957031 81.800781 161.710938 82.867188 161.710938 84.082031 C 161.710938 85.007812 161.859375 85.832031 162.148438 86.609375 C 162.441406 87.390625 162.832031 88.019531 163.363281 88.554688 C 163.898438 89.089844 164.484375 89.527344 165.210938 89.820312 C 165.941406 90.160156 166.765625 90.304688 167.59375 90.304688 Z M 167.59375 90.304688 " fill-opacity="1" fill-rule="nonzero"/><path fill="#ffffff" d="M 190.875 93.367188 L 190.875 74.996094 L 194.421875 74.996094 L 194.421875 93.367188 Z M 193.449219 85.6875 L 193.449219 82.917969 L 197.726562 82.917969 C 198.601562 82.917969 199.28125 82.675781 199.769531 82.238281 C 200.253906 81.800781 200.496094 81.167969 200.496094 80.390625 C 200.496094 79.660156 200.253906 79.078125 199.769531 78.589844 C 199.28125 78.105469 198.601562 77.863281 197.726562 77.863281 L 193.449219 77.863281 L 193.449219 74.945312 L 198.019531 74.945312 C 199.1875 74.945312 200.253906 75.1875 201.128906 75.625 C 202.003906 76.113281 202.734375 76.746094 203.21875 77.523438 C 203.707031 78.300781 203.949219 79.222656 203.949219 80.292969 C 203.949219 81.363281 203.707031 82.335938 203.21875 83.113281 C 202.734375 83.890625 202.003906 84.519531 201.128906 84.957031 C 200.207031 85.394531 199.1875 85.640625 197.96875 85.640625 L 193.449219 85.640625 Z M 200.886719 93.367188 L 194.8125 85.445312 L 198.066406 84.425781 L 205.164062 93.367188 Z M 200.886719 93.367188 " fill-opacity="1" fill-rule="nonzero"/><path fill="#ffffff" d="M 216.195312 93.367188 L 223.585938 74.996094 L 226.5 74.996094 L 233.886719 93.367188 L 230.097656 93.367188 L 224.410156 78.300781 L 225.722656 78.300781 L 219.9375 93.367188 Z M 220.085938 89.917969 L 220.085938 86.953125 L 229.953125 86.953125 L 229.953125 89.917969 Z M 220.085938 89.917969 " fill-opacity="1" fill-rule="nonzero"/><path fill="#ffffff" d="M 243.464844 78.152344 L 243.464844 74.996094 L 258.773438 74.996094 L 258.773438 78.152344 Z M 249.296875 93.367188 L 249.296875 75.382812 L 252.890625 75.382812 L 252.890625 93.367188 Z M 249.296875 93.367188 " fill-opacity="1" fill-rule="nonzero"/><path fill="#ffffff" d="M 272.089844 74.996094 L 275.640625 74.996094 L 275.640625 93.367188 L 272.089844 93.367188 Z M 272.089844 74.996094 " fill-opacity="1" fill-rule="nonzero"/><path fill="#ffffff" d="M 298.921875 93.660156 C 297.558594 93.660156 296.34375 93.414062 295.175781 92.929688 C 294.011719 92.445312 292.992188 91.761719 292.164062 90.886719 C 291.289062 90.011719 290.609375 88.992188 290.121094 87.875 C 289.636719 86.707031 289.394531 85.492188 289.394531 84.132812 C 289.394531 82.820312 289.636719 81.554688 290.121094 80.4375 C 290.609375 79.320312 291.289062 78.300781 292.117188 77.425781 C 292.992188 76.550781 293.960938 75.871094 295.128906 75.433594 C 296.296875 74.945312 297.511719 74.703125 298.871094 74.703125 C 300.230469 74.703125 301.496094 74.945312 302.613281 75.433594 C 303.78125 75.917969 304.753906 76.597656 305.628906 77.425781 C 306.503906 78.300781 307.183594 79.273438 307.667969 80.4375 C 308.15625 81.605469 308.398438 82.820312 308.398438 84.132812 C 308.398438 85.445312 308.15625 86.707031 307.667969 87.828125 C 307.183594 88.992188 306.503906 89.964844 305.628906 90.839844 C 304.753906 91.714844 303.78125 92.394531 302.613281 92.882812 C 301.496094 93.414062 300.230469 93.660156 298.921875 93.660156 Z M 298.871094 90.304688 C 300.039062 90.304688 301.105469 90.0625 301.933594 89.527344 C 302.808594 88.992188 303.488281 88.265625 303.976562 87.339844 C 304.460938 86.417969 304.703125 85.347656 304.703125 84.082031 C 304.703125 83.160156 304.558594 82.335938 304.265625 81.605469 C 303.976562 80.875 303.585938 80.195312 303.050781 79.660156 C 302.515625 79.125 301.933594 78.6875 301.203125 78.398438 C 300.476562 78.105469 299.699219 77.960938 298.824219 77.960938 C 297.65625 77.960938 296.636719 78.203125 295.761719 78.738281 C 294.886719 79.273438 294.207031 79.953125 293.71875 80.875 C 293.234375 81.800781 292.992188 82.867188 292.992188 84.082031 C 292.992188 85.007812 293.136719 85.832031 293.429688 86.609375 C 293.71875 87.390625 294.109375 88.019531 294.644531 88.554688 C 295.175781 89.089844 295.761719 89.527344 296.488281 89.820312 C 297.21875 90.160156 297.996094 90.304688 298.871094 90.304688 Z M 298.871094 90.304688 " fill-opacity="1" fill-rule="nonzero"/><path fill="#ffffff" d="M 322.105469 93.367188 L 322.105469 74.996094 L 324.582031 74.996094 L 325.652344 78.542969 L 325.652344 93.367188 Z M 334.835938 93.367188 L 323.949219 79.273438 L 324.632812 74.996094 L 335.519531 89.089844 Z M 334.835938 93.367188 L 333.816406 89.917969 L 333.816406 74.996094 L 337.414062 74.996094 L 337.414062 93.367188 Z M 334.835938 93.367188 " fill-opacity="1" fill-rule="nonzero"/><path fill="#ffffff" d="M 46.230469 67.414062 L 46.230469 32.660156 L 29.367188 32.660156 L 29.367188 22.261719 L 76.269531 22.261719 L 76.269531 32.660156 L 58.964844 32.660156 L 58.964844 67.414062 Z M 46.230469 67.414062 " fill-opacity="1" fill-rule="nonzero"/><path fill="#ffffff" d="M 73.691406 41.070312 L 110.679688 41.070312 C 111.457031 41.070312 111.84375 40.777344 111.84375 40.195312 L 111.84375 33.535156 C 111.84375 33.34375 111.75 33.148438 111.503906 32.953125 C 111.261719 32.757812 111.019531 32.660156 110.726562 32.660156 L 73.742188 32.660156 L 73.742188 22.261719 L 118.308594 22.261719 C 118.988281 22.261719 119.71875 22.453125 120.449219 22.890625 C 121.175781 23.28125 121.90625 23.816406 122.488281 24.449219 C 123.121094 25.078125 123.65625 25.757812 124.042969 26.488281 C 124.433594 27.21875 124.675781 27.945312 124.675781 28.628906 L 124.675781 42.964844 C 124.675781 44.519531 124.335938 45.832031 123.605469 46.949219 C 122.925781 48.070312 122.003906 48.945312 120.835938 49.671875 C 119.71875 50.351562 118.40625 50.886719 116.996094 51.179688 C 115.585938 51.472656 114.128906 51.664062 112.671875 51.664062 L 129.972656 67.460938 L 112.1875 67.460938 L 94.542969 51.617188 L 86.523438 51.617188 L 86.523438 67.414062 L 73.691406 67.414062 Z M 73.691406 41.070312 " fill-opacity="1" fill-rule="nonzero"/><path fill="#ffffff" d="M 176.34375 67.414062 L 172.890625 61.335938 L 146.402344 61.335938 L 143 67.414062 L 129.34375 67.414062 L 153.304688 22.261719 L 166.039062 22.261719 L 190 67.414062 Z M 159.621094 35.964844 L 151.652344 50.789062 L 167.738281 50.789062 Z M 159.621094 35.964844 " fill-opacity="1" fill-rule="nonzero"/><path fill="#ffffff" d="M 176.34375 22.210938 L 193.109375 22.210938 L 206.71875 36.695312 L 220.183594 22.210938 L 236.949219 22.210938 L 213.039062 47.726562 L 213.039062 67.414062 L 200.207031 67.414062 L 200.207031 47.726562 Z M 176.34375 22.210938 " fill-opacity="1" fill-rule="nonzero"/><path fill="#ffffff" d="M 323.902344 67.414062 L 297.65625 39.953125 L 297.65625 67.363281 L 284.824219 67.363281 L 284.824219 22.210938 L 298.726562 22.210938 L 324.777344 49.867188 L 324.777344 22.210938 L 337.511719 22.210938 L 337.511719 67.363281 L 323.902344 67.363281 Z M 323.902344 67.414062 " fill-opacity="1" fill-rule="nonzero"/><path fill="#ffffff" d="M 269.222656 65.613281 C 268.542969 66.730469 267.328125 67.363281 266.015625 67.363281 L 284.824219 67.363281 L 260.863281 22.210938 L 248.128906 22.210938 L 224.167969 67.363281 L 242.929688 67.363281 C 241.617188 67.363281 240.449219 66.683594 239.722656 65.613281 C 239.671875 65.566406 239.671875 65.515625 239.625 65.46875 C 238.941406 64.253906 238.941406 62.84375 239.625 61.675781 L 243.414062 55.066406 L 248.566406 46.171875 L 248.566406 37.863281 L 248.46875 37.863281 C 248.03125 37.863281 247.691406 37.523438 247.691406 37.085938 C 247.691406 36.648438 248.03125 36.308594 248.46875 36.308594 L 260.425781 36.308594 C 260.863281 36.308594 261.203125 36.648438 261.203125 37.085938 C 261.203125 37.523438 260.863281 37.863281 260.425781 37.863281 L 260.230469 37.863281 L 260.230469 45.882812 L 265.53125 55.066406 L 269.367188 61.675781 C 270.050781 62.84375 270.050781 64.300781 269.367188 65.46875 C 269.320312 65.515625 269.273438 65.566406 269.222656 65.613281 Z M 269.222656 65.613281 " fill-opacity="1" fill-rule="nonzero"/><path fill="#ffffff" d="M 252.457031 55.019531 C 253.574219 55.019531 254.449219 54.144531 254.449219 53.027344 C 254.449219 51.910156 253.574219 51.035156 252.457031 51.035156 C 251.335938 51.035156 250.460938 51.910156 250.460938 53.027344 C 250.460938 54.09375 251.335938 55.019531 252.457031 55.019531 Z M 252.457031 55.019531 " fill-opacity="1" fill-rule="nonzero"/><path fill="#ffffff" d="M 256.925781 47.242188 C 256.925781 47.441406 256.886719 47.632812 256.8125 47.820312 C 256.734375 48.003906 256.625 48.167969 256.484375 48.308594 C 256.34375 48.449219 256.179688 48.558594 255.996094 48.632812 C 255.8125 48.710938 255.621094 48.75 255.417969 48.75 C 255.21875 48.75 255.027344 48.710938 254.84375 48.632812 C 254.660156 48.558594 254.496094 48.449219 254.355469 48.308594 C 254.214844 48.167969 254.105469 48.003906 254.027344 47.820312 C 253.953125 47.632812 253.914062 47.441406 253.914062 47.242188 C 253.914062 47.042969 253.953125 46.851562 254.027344 46.664062 C 254.105469 46.480469 254.214844 46.316406 254.355469 46.175781 C 254.496094 46.035156 254.660156 45.925781 254.84375 45.851562 C 255.027344 45.773438 255.21875 45.734375 255.417969 45.734375 C 255.621094 45.734375 255.8125 45.773438 255.996094 45.851562 C 256.179688 45.925781 256.34375 46.035156 256.484375 46.175781 C 256.625 46.316406 256.734375 46.480469 256.8125 46.664062 C 256.886719 46.851562 256.925781 47.042969 256.925781 47.242188 Z M 256.925781 47.242188 " fill-opacity="1" fill-rule="nonzero"/><path fill="#ffffff" d="M 253.671875 43.453125 C 254.109375 43.453125 254.496094 43.109375 254.496094 42.625 C 254.496094 42.1875 254.15625 41.796875 253.671875 41.796875 C 253.234375 41.796875 252.84375 42.140625 252.84375 42.625 C 252.84375 43.109375 253.183594 43.453125 253.671875 43.453125 Z M 253.671875 43.453125 " fill-opacity="1" fill-rule="nonzero"/><path fill="#ffffff" d="M 266.355469 63.816406 C 266.257812 63.960938 266.160156 64.011719 266.015625 64.011719 L 242.929688 64.011719 C 242.78125 64.011719 242.6875 63.960938 242.589844 63.816406 C 242.492188 63.671875 242.492188 63.523438 242.589844 63.425781 L 247.398438 55.117188 C 247.398438 55.117188 248.46875 55.117188 251.238281 56.867188 C 253.28125 58.128906 255.03125 56.527344 256.390625 55.117188 C 256.878906 54.582031 257.316406 54.09375 257.703125 53.804688 C 259.113281 52.6875 260.378906 53.074219 261.542969 55.117188 L 266.355469 63.425781 C 266.453125 63.523438 266.453125 63.671875 266.355469 63.816406 Z M 266.355469 63.816406 " fill-opacity="1" fill-rule="nonzero"/></svg>