<svg xmlns="http://www.w3.org/2000/svg" xmlns:xlink="http://www.w3.org/1999/xlink" width="500" zoomAndPan="magnify" viewBox="0 0 375 112.499997" height="150" preserveAspectRatio="xMidYMid meet" version="1.0"><defs><clipPath id="66be234c42"><path d="M 0.828125 0 L 374.167969 0 L 374.167969 112.003906 L 0.828125 112.003906 Z M 0.828125 0 " clip-rule="nonzero"/></clipPath><clipPath id="5b681a85d2"><path d="M 0.828125 20.390625 L 374.167969 20.390625 L 374.167969 91.324219 L 0.828125 91.324219 Z M 0.828125 20.390625 " clip-rule="nonzero"/></clipPath></defs><g clip-path="url(#66be234c42)"><path fill="#ffffff" d="M 0.828125 0 L 374.171875 0 L 374.171875 112.003906 L 0.828125 112.003906 Z M 0.828125 0 " fill-opacity="1" fill-rule="nonzero"/><path fill="#ffffff" d="M 0.828125 0 L 374.171875 0 L 374.171875 112.003906 L 0.828125 112.003906 Z M 0.828125 0 " fill-opacity="1" fill-rule="nonzero"/></g><g clip-path="url(#5b681a85d2)"><rect x="-37.5" width="450" fill="#ffffff" y="-11.25" height="134.999996" fill-opacity="1"/></g><path fill="#181547" d="M 44.574219 80.953125 L 44.574219 44.769531 L 27.015625 44.769531 L 27.015625 33.9375 L 75.851562 33.9375 L 75.851562 44.769531 L 57.835938 44.769531 L 57.835938 80.953125 Z M 44.574219 80.953125 " fill-opacity="1" fill-rule="nonzero"/><path fill="#181547" d="M 73.167969 53.523438 L 111.683594 53.523438 C 112.492188 53.523438 112.898438 53.222656 112.898438 52.613281 L 112.898438 45.679688 C 112.898438 45.476562 112.796875 45.277344 112.542969 45.074219 C 112.289062 44.871094 112.035156 44.769531 111.734375 44.769531 L 73.21875 44.769531 L 73.21875 33.9375 L 119.628906 33.9375 C 120.335938 33.9375 121.097656 34.140625 121.855469 34.597656 C 122.613281 35.003906 123.375 35.558594 123.980469 36.214844 C 124.636719 36.875 125.195312 37.582031 125.601562 38.34375 C 126.003906 39.101562 126.257812 39.859375 126.257812 40.570312 L 126.257812 55.5 C 126.257812 57.117188 125.902344 58.484375 125.144531 59.648438 C 124.4375 60.8125 123.472656 61.722656 122.261719 62.484375 C 121.097656 63.191406 119.730469 63.746094 118.261719 64.050781 C 116.792969 64.355469 115.277344 64.558594 113.757812 64.558594 L 131.773438 81.003906 L 113.25 81.003906 L 94.878906 64.507812 L 86.53125 64.507812 L 86.53125 80.953125 L 73.167969 80.953125 Z M 73.167969 53.523438 " fill-opacity="1" fill-rule="nonzero"/><path fill="#181547" d="M 180.054688 80.953125 L 176.460938 74.628906 L 148.878906 74.628906 L 145.335938 80.953125 L 131.117188 80.953125 L 156.066406 33.9375 L 169.324219 33.9375 L 194.277344 80.953125 Z M 162.644531 48.210938 L 154.34375 63.644531 L 171.097656 63.644531 Z M 162.644531 48.210938 " fill-opacity="1" fill-rule="nonzero"/><path fill="#181547" d="M 180.054688 33.890625 L 197.515625 33.890625 L 211.683594 48.96875 L 225.703125 33.890625 L 243.164062 33.890625 L 218.265625 60.457031 L 218.265625 80.953125 L 204.902344 80.953125 L 204.902344 60.457031 Z M 180.054688 33.890625 " fill-opacity="1" fill-rule="nonzero"/><path fill="#181547" d="M 333.703125 80.953125 L 306.375 52.359375 L 306.375 80.902344 L 293.011719 80.902344 L 293.011719 33.890625 L 307.488281 33.890625 L 334.613281 62.683594 L 334.613281 33.890625 L 347.871094 33.890625 L 347.871094 80.902344 L 333.703125 80.902344 Z M 333.703125 80.953125 " fill-opacity="1" fill-rule="nonzero"/><path fill="#181547" d="M 276.765625 79.082031 C 276.058594 80.246094 274.792969 80.902344 273.425781 80.902344 L 293.011719 80.902344 L 268.0625 33.890625 L 254.804688 33.890625 L 229.851562 80.902344 L 249.386719 80.902344 C 248.023438 80.902344 246.808594 80.195312 246.046875 79.082031 C 245.996094 79.03125 245.996094 78.980469 245.945312 78.929688 C 245.238281 77.664062 245.238281 76.199219 245.945312 74.984375 L 249.894531 68.101562 L 255.257812 58.839844 L 255.257812 50.183594 L 255.15625 50.183594 C 254.703125 50.183594 254.347656 49.832031 254.347656 49.375 C 254.347656 48.917969 254.703125 48.566406 255.15625 48.566406 L 267.605469 48.566406 C 268.0625 48.566406 268.417969 48.917969 268.417969 49.375 C 268.417969 49.832031 268.0625 50.183594 267.605469 50.183594 L 267.40625 50.183594 L 267.40625 58.535156 L 272.921875 68.101562 L 276.917969 74.984375 C 277.628906 76.199219 277.628906 77.714844 276.917969 78.929688 C 276.867188 78.980469 276.816406 79.03125 276.765625 79.082031 Z M 276.765625 79.082031 " fill-opacity="1" fill-rule="nonzero"/><path fill="#181547" d="M 259.308594 68.050781 C 260.472656 68.050781 261.382812 67.136719 261.382812 65.972656 C 261.382812 64.808594 260.472656 63.898438 259.308594 63.898438 C 258.144531 63.898438 257.234375 64.808594 257.234375 65.972656 C 257.234375 67.085938 258.144531 68.050781 259.308594 68.050781 Z M 259.308594 68.050781 " fill-opacity="1" fill-rule="nonzero"/><path fill="#181547" d="M 263.964844 59.953125 C 263.964844 60.160156 263.921875 60.359375 263.84375 60.550781 C 263.765625 60.746094 263.652344 60.914062 263.503906 61.0625 C 263.355469 61.207031 263.1875 61.320312 262.996094 61.402344 C 262.800781 61.480469 262.601562 61.519531 262.394531 61.519531 C 262.1875 61.519531 261.988281 61.480469 261.792969 61.402344 C 261.601562 61.320312 261.433594 61.207031 261.285156 61.0625 C 261.136719 60.914062 261.023438 60.746094 260.945312 60.550781 C 260.867188 60.359375 260.824219 60.160156 260.824219 59.953125 C 260.824219 59.742188 260.867188 59.542969 260.945312 59.351562 C 261.023438 59.160156 261.136719 58.988281 261.285156 58.84375 C 261.433594 58.695312 261.601562 58.582031 261.792969 58.503906 C 261.988281 58.421875 262.1875 58.382812 262.394531 58.382812 C 262.601562 58.382812 262.800781 58.421875 262.996094 58.503906 C 263.1875 58.582031 263.355469 58.695312 263.503906 58.84375 C 263.652344 58.988281 263.765625 59.160156 263.84375 59.351562 C 263.921875 59.542969 263.964844 59.742188 263.964844 59.953125 Z M 263.964844 59.953125 " fill-opacity="1" fill-rule="nonzero"/><path fill="#181547" d="M 260.574219 56.003906 C 261.027344 56.003906 261.433594 55.648438 261.433594 55.144531 C 261.433594 54.6875 261.078125 54.285156 260.574219 54.285156 C 260.117188 54.285156 259.710938 54.636719 259.710938 55.144531 C 259.710938 55.648438 260.066406 56.003906 260.574219 56.003906 Z M 260.574219 56.003906 " fill-opacity="1" fill-rule="nonzero"/><path fill="#181547" d="M 273.78125 77.210938 C 273.679688 77.363281 273.578125 77.410156 273.425781 77.410156 L 249.386719 77.410156 C 249.238281 77.410156 249.136719 77.363281 249.035156 77.210938 C 248.933594 77.058594 248.933594 76.90625 249.035156 76.804688 L 254.042969 68.152344 C 254.042969 68.152344 255.15625 68.152344 258.042969 69.972656 C 260.167969 71.289062 261.988281 69.617188 263.40625 68.152344 C 263.914062 67.59375 264.367188 67.085938 264.773438 66.785156 C 266.242188 65.621094 267.554688 66.023438 268.769531 68.152344 L 273.78125 76.804688 C 273.882812 76.90625 273.882812 77.058594 273.78125 77.210938 Z M 273.78125 77.210938 " fill-opacity="1" fill-rule="nonzero"/></svg>