<svg xmlns="http://www.w3.org/2000/svg" xmlns:xlink="http://www.w3.org/1999/xlink" width="500" zoomAndPan="magnify" viewBox="0 0 375 112.499997" height="150" preserveAspectRatio="xMidYMid meet" version="1.0"><defs><clipPath id="7be043373e"><path d="M 0.828125 0 L 374.167969 0 L 374.167969 112.003906 L 0.828125 112.003906 Z M 0.828125 0 " clip-rule="nonzero"/></clipPath><clipPath id="a9d04a3727"><path d="M 18.496094 1.769531 L 356.742188 1.769531 L 356.742188 110.039062 L 18.496094 110.039062 Z M 18.496094 1.769531 " clip-rule="nonzero"/></clipPath></defs><g clip-path="url(#7be043373e)"><path fill="#ffffff" d="M 0.828125 0 L 374.171875 0 L 374.171875 112.003906 L 0.828125 112.003906 Z M 0.828125 0 " fill-opacity="1" fill-rule="nonzero"/><path fill="#181547" d="M 0.828125 0 L 374.171875 0 L 374.171875 112.003906 L 0.828125 112.003906 Z M 0.828125 0 " fill-opacity="1" fill-rule="nonzero"/></g><g clip-path="url(#a9d04a3727)"><rect x="-37.5" width="450" fill="#181547" y="-11.25" height="134.999996" fill-opacity="1"/></g><path fill="#ffffff" d="M 67.601562 86.515625 C 66.378906 86.515625 65.292969 86.296875 64.246094 85.863281 C 63.199219 85.425781 62.328125 84.816406 61.546875 84.078125 C 60.761719 83.292969 60.195312 82.421875 59.761719 81.375 C 59.324219 80.332031 59.148438 79.242188 59.148438 78.066406 C 59.148438 76.890625 59.367188 75.757812 59.761719 74.753906 C 60.152344 73.710938 60.761719 72.839844 61.546875 72.054688 C 62.328125 71.269531 63.199219 70.703125 64.246094 70.269531 C 65.25 69.832031 66.378906 69.617188 67.601562 69.617188 C 68.90625 69.617188 70.082031 69.832031 71.085938 70.269531 C 72.085938 70.703125 72.957031 71.269531 73.742188 72.054688 L 71.605469 74.1875 C 71.171875 73.710938 70.605469 73.316406 69.953125 73.011719 C 69.300781 72.75 68.515625 72.578125 67.644531 72.578125 C 66.859375 72.578125 66.164062 72.707031 65.554688 72.96875 C 64.898438 73.230469 64.378906 73.621094 63.898438 74.101562 C 63.417969 74.582031 63.070312 75.191406 62.808594 75.84375 C 62.546875 76.539062 62.417969 77.28125 62.417969 78.066406 C 62.417969 78.894531 62.546875 79.632812 62.808594 80.332031 C 63.070312 80.984375 63.417969 81.59375 63.898438 82.074219 C 64.378906 82.550781 64.898438 82.945312 65.554688 83.203125 C 66.207031 83.464844 66.902344 83.597656 67.644531 83.597656 C 68.558594 83.597656 69.34375 83.464844 70.039062 83.160156 C 70.691406 82.898438 71.257812 82.464844 71.695312 81.984375 L 73.828125 84.121094 C 73.042969 84.902344 72.171875 85.46875 71.171875 85.90625 C 70.125 86.296875 68.949219 86.515625 67.601562 86.515625 Z M 67.601562 86.515625 " fill-opacity="1" fill-rule="nonzero"/><path fill="#ffffff" d="M 92.820312 86.558594 C 91.601562 86.558594 90.511719 86.339844 89.464844 85.90625 C 88.421875 85.46875 87.503906 84.859375 86.765625 84.074219 C 85.980469 83.292969 85.371094 82.378906 84.9375 81.375 C 84.5 80.332031 84.28125 79.242188 84.28125 78.023438 C 84.28125 76.847656 84.5 75.714844 84.9375 74.710938 C 85.371094 73.710938 85.980469 72.796875 86.722656 72.011719 C 87.503906 71.226562 88.375 70.617188 89.421875 70.226562 C 90.46875 69.789062 91.554688 69.570312 92.777344 69.570312 C 93.996094 69.570312 95.128906 69.789062 96.128906 70.226562 C 97.175781 70.660156 98.046875 71.269531 98.828125 72.011719 C 99.613281 72.796875 100.222656 73.667969 100.660156 74.710938 C 101.09375 75.757812 101.3125 76.847656 101.3125 78.023438 C 101.3125 79.199219 101.09375 80.332031 100.660156 81.332031 C 100.222656 82.378906 99.613281 83.25 98.828125 84.03125 C 98.046875 84.816406 97.175781 85.425781 96.128906 85.863281 C 95.171875 86.339844 94.039062 86.558594 92.820312 86.558594 Z M 92.777344 83.554688 C 93.820312 83.554688 94.78125 83.335938 95.519531 82.855469 C 96.304688 82.378906 96.914062 81.722656 97.347656 80.898438 C 97.785156 80.070312 98.003906 79.109375 98.003906 77.976562 C 98.003906 77.152344 97.871094 76.410156 97.609375 75.757812 C 97.347656 75.105469 97 74.492188 96.523438 74.015625 C 96.042969 73.535156 95.519531 73.144531 94.867188 72.882812 C 94.214844 72.621094 93.515625 72.488281 92.730469 72.488281 C 91.6875 72.488281 90.773438 72.707031 89.988281 73.1875 C 89.203125 73.667969 88.59375 74.277344 88.160156 75.105469 C 87.722656 75.929688 87.503906 76.890625 87.503906 77.976562 C 87.503906 78.804688 87.636719 79.546875 87.898438 80.242188 C 88.160156 80.941406 88.507812 81.507812 88.984375 81.984375 C 89.464844 82.464844 89.988281 82.855469 90.640625 83.117188 C 91.339844 83.421875 92.035156 83.554688 92.777344 83.554688 Z M 92.777344 83.554688 " fill-opacity="1" fill-rule="nonzero"/><path fill="#ffffff" d="M 113.640625 86.296875 L 113.640625 69.832031 L 116.820312 69.832031 L 116.820312 86.296875 Z M 115.992188 79.414062 L 115.992188 76.933594 L 119.824219 76.933594 C 120.609375 76.933594 121.21875 76.714844 121.652344 76.324219 C 122.089844 75.929688 122.308594 75.363281 122.308594 74.667969 C 122.308594 74.015625 122.089844 73.492188 121.652344 73.054688 C 121.21875 72.621094 120.609375 72.402344 119.824219 72.402344 L 115.992188 72.402344 L 115.992188 69.789062 L 120.085938 69.789062 C 121.132812 69.789062 122.089844 70.007812 122.875 70.398438 C 123.65625 70.835938 124.3125 71.402344 124.746094 72.097656 C 125.183594 72.796875 125.398438 73.621094 125.398438 74.582031 C 125.398438 75.539062 125.183594 76.410156 124.746094 77.105469 C 124.3125 77.804688 123.65625 78.371094 122.875 78.761719 C 122.046875 79.152344 121.132812 79.371094 120.042969 79.371094 L 115.992188 79.371094 Z M 122.613281 86.296875 L 117.167969 79.199219 L 120.085938 78.28125 L 126.445312 86.296875 Z M 122.613281 86.296875 " fill-opacity="1" fill-rule="nonzero"/><path fill="#ffffff" d="M 138.074219 86.296875 L 138.074219 69.832031 L 141.253906 69.832031 L 141.253906 86.296875 Z M 140.425781 80.15625 L 140.425781 77.542969 L 144.257812 77.542969 C 144.738281 77.542969 145.21875 77.457031 145.609375 77.238281 C 146 77.019531 146.351562 76.757812 146.566406 76.367188 C 146.785156 75.976562 146.917969 75.539062 146.917969 74.972656 C 146.917969 74.449219 146.785156 73.972656 146.566406 73.578125 C 146.351562 73.1875 146 72.882812 145.609375 72.707031 C 145.21875 72.488281 144.738281 72.402344 144.257812 72.402344 L 140.425781 72.402344 L 140.425781 69.789062 L 144.5625 69.789062 C 145.609375 69.789062 146.566406 70.007812 147.394531 70.441406 C 148.222656 70.878906 148.875 71.445312 149.355469 72.230469 C 149.835938 73.011719 150.097656 73.925781 150.097656 74.972656 C 150.097656 76.019531 149.835938 76.933594 149.355469 77.71875 C 148.875 78.5 148.222656 79.066406 147.394531 79.503906 C 146.566406 79.9375 145.609375 80.15625 144.5625 80.15625 Z M 140.425781 80.15625 " fill-opacity="1" fill-rule="nonzero"/><path fill="#ffffff" d="M 169.957031 86.558594 C 168.738281 86.558594 167.648438 86.339844 166.605469 85.90625 C 165.558594 85.46875 164.644531 84.859375 163.902344 84.074219 C 163.121094 83.292969 162.507812 82.378906 162.074219 81.375 C 161.636719 80.332031 161.421875 79.242188 161.421875 78.023438 C 161.421875 76.847656 161.636719 75.714844 162.074219 74.710938 C 162.507812 73.710938 163.121094 72.796875 163.859375 72.011719 C 164.644531 71.226562 165.515625 70.617188 166.558594 70.226562 C 167.605469 69.789062 168.695312 69.570312 169.914062 69.570312 C 171.132812 69.570312 172.265625 69.789062 173.269531 70.226562 C 174.3125 70.660156 175.183594 71.269531 175.96875 72.011719 C 176.753906 72.796875 177.363281 73.667969 177.796875 74.710938 C 178.234375 75.757812 178.453125 76.847656 178.453125 78.023438 C 178.453125 79.199219 178.234375 80.332031 177.796875 81.332031 C 177.363281 82.378906 176.753906 83.25 175.96875 84.03125 C 175.183594 84.816406 174.3125 85.425781 173.269531 85.863281 C 172.265625 86.339844 171.175781 86.558594 169.957031 86.558594 Z M 169.914062 83.554688 C 170.960938 83.554688 171.917969 83.335938 172.65625 82.855469 C 173.441406 82.378906 174.050781 81.722656 174.488281 80.898438 C 174.921875 80.070312 175.140625 79.109375 175.140625 77.976562 C 175.140625 77.152344 175.011719 76.410156 174.75 75.757812 C 174.488281 75.105469 174.140625 74.492188 173.660156 74.015625 C 173.179688 73.535156 172.65625 73.144531 172.003906 72.882812 C 171.351562 72.621094 170.65625 72.488281 169.871094 72.488281 C 168.824219 72.488281 167.910156 72.707031 167.125 73.1875 C 166.34375 73.667969 165.734375 74.277344 165.296875 75.105469 C 164.863281 75.929688 164.644531 76.890625 164.644531 77.976562 C 164.644531 78.804688 164.773438 79.546875 165.035156 80.242188 C 165.296875 80.941406 165.644531 81.507812 166.125 81.984375 C 166.605469 82.464844 167.125 82.855469 167.78125 83.117188 C 168.433594 83.421875 169.171875 83.554688 169.914062 83.554688 Z M 169.914062 83.554688 " fill-opacity="1" fill-rule="nonzero"/><path fill="#ffffff" d="M 190.777344 86.296875 L 190.777344 69.832031 L 193.957031 69.832031 L 193.957031 86.296875 Z M 193.085938 79.414062 L 193.085938 76.933594 L 196.917969 76.933594 C 197.703125 76.933594 198.3125 76.714844 198.75 76.324219 C 199.183594 75.929688 199.402344 75.363281 199.402344 74.667969 C 199.402344 74.015625 199.183594 73.492188 198.75 73.054688 C 198.3125 72.621094 197.703125 72.402344 196.917969 72.402344 L 193.085938 72.402344 L 193.085938 69.789062 L 197.179688 69.789062 C 198.226562 69.789062 199.183594 70.007812 199.96875 70.398438 C 200.753906 70.835938 201.40625 71.402344 201.839844 72.097656 C 202.277344 72.796875 202.496094 73.621094 202.496094 74.582031 C 202.496094 75.539062 202.277344 76.410156 201.839844 77.105469 C 201.40625 77.804688 200.753906 78.371094 199.96875 78.761719 C 199.140625 79.152344 198.226562 79.371094 197.136719 79.371094 L 193.085938 79.371094 Z M 199.75 86.296875 L 194.304688 79.199219 L 197.222656 78.28125 L 203.582031 86.296875 Z M 199.75 86.296875 " fill-opacity="1" fill-rule="nonzero"/><path fill="#ffffff" d="M 213.46875 86.296875 L 220.089844 69.832031 L 222.703125 69.832031 L 229.324219 86.296875 L 225.925781 86.296875 L 220.832031 72.796875 L 222.007812 72.796875 L 216.824219 86.296875 Z M 216.953125 83.203125 L 216.953125 80.546875 L 225.796875 80.546875 L 225.796875 83.203125 Z M 216.953125 83.203125 " fill-opacity="1" fill-rule="nonzero"/><path fill="#ffffff" d="M 237.90625 72.664062 L 237.90625 69.832031 L 251.625 69.832031 L 251.625 72.664062 Z M 243.132812 86.296875 L 243.132812 70.183594 L 246.355469 70.183594 L 246.355469 86.296875 Z M 243.132812 86.296875 " fill-opacity="1" fill-rule="nonzero"/><path fill="#ffffff" d="M 263.558594 69.832031 L 266.738281 69.832031 L 266.738281 86.296875 L 263.558594 86.296875 Z M 263.558594 69.832031 " fill-opacity="1" fill-rule="nonzero"/><path fill="#ffffff" d="M 287.605469 86.558594 C 286.382812 86.558594 285.296875 86.339844 284.25 85.90625 C 283.203125 85.46875 282.289062 84.859375 281.550781 84.074219 C 280.765625 83.292969 280.15625 82.378906 279.71875 81.375 C 279.285156 80.332031 279.066406 79.242188 279.066406 78.023438 C 279.066406 76.847656 279.285156 75.714844 279.71875 74.710938 C 280.15625 73.710938 280.765625 72.796875 281.503906 72.011719 C 282.289062 71.226562 283.160156 70.617188 284.207031 70.226562 C 285.25 69.789062 286.339844 69.570312 287.558594 69.570312 C 288.78125 69.570312 289.910156 69.789062 290.914062 70.226562 C 291.960938 70.660156 292.832031 71.269531 293.613281 72.011719 C 294.398438 72.796875 295.007812 73.667969 295.445312 74.710938 C 295.878906 75.757812 296.097656 76.847656 296.097656 78.023438 C 296.097656 79.199219 295.878906 80.332031 295.445312 81.332031 C 295.007812 82.378906 294.398438 83.25 293.613281 84.03125 C 292.832031 84.816406 291.960938 85.425781 290.914062 85.863281 C 289.910156 86.339844 288.78125 86.558594 287.605469 86.558594 Z M 287.558594 83.554688 C 288.605469 83.554688 289.5625 83.335938 290.304688 82.855469 C 291.089844 82.378906 291.699219 81.722656 292.132812 80.898438 C 292.570312 80.070312 292.785156 79.109375 292.785156 77.976562 C 292.785156 77.152344 292.65625 76.410156 292.394531 75.757812 C 292.132812 75.105469 291.785156 74.492188 291.304688 74.015625 C 290.828125 73.535156 290.304688 73.144531 289.652344 72.882812 C 288.996094 72.621094 288.300781 72.488281 287.515625 72.488281 C 286.472656 72.488281 285.554688 72.707031 284.773438 73.1875 C 283.988281 73.667969 283.378906 74.277344 282.941406 75.105469 C 282.507812 75.929688 282.289062 76.890625 282.289062 77.976562 C 282.289062 78.804688 282.421875 79.546875 282.683594 80.242188 C 282.941406 80.941406 283.292969 81.507812 283.769531 81.984375 C 284.25 82.464844 284.773438 82.855469 285.425781 83.117188 C 286.078125 83.421875 286.777344 83.554688 287.558594 83.554688 Z M 287.558594 83.554688 " fill-opacity="1" fill-rule="nonzero"/><path fill="#ffffff" d="M 308.378906 86.296875 L 308.378906 69.832031 L 310.601562 69.832031 L 311.558594 73.011719 L 311.558594 86.296875 Z M 319.792969 86.296875 L 310.035156 73.667969 L 310.644531 69.832031 L 320.402344 82.464844 Z M 319.792969 86.296875 L 318.878906 83.203125 L 318.878906 69.832031 L 322.101562 69.832031 L 322.101562 86.296875 Z M 319.792969 86.296875 " fill-opacity="1" fill-rule="nonzero"/><path fill="#ffffff" d="M 61.152344 63.039062 L 61.152344 31.894531 L 46.039062 31.894531 L 46.039062 22.574219 L 88.070312 22.574219 L 88.070312 31.894531 L 72.566406 31.894531 L 72.566406 63.039062 Z M 61.152344 63.039062 " fill-opacity="1" fill-rule="nonzero"/><path fill="#ffffff" d="M 85.761719 39.429688 L 118.910156 39.429688 C 119.605469 39.429688 119.953125 39.167969 119.953125 38.648438 L 119.953125 32.679688 C 119.953125 32.503906 119.867188 32.332031 119.648438 32.15625 C 119.433594 31.984375 119.214844 31.894531 118.953125 31.894531 L 85.808594 31.894531 L 85.808594 22.574219 L 125.746094 22.574219 C 126.359375 22.574219 127.011719 22.75 127.664062 23.140625 C 128.316406 23.488281 128.972656 23.96875 129.492188 24.535156 C 130.058594 25.101562 130.539062 25.710938 130.886719 26.363281 C 131.234375 27.015625 131.453125 27.671875 131.453125 28.28125 L 131.453125 41.128906 C 131.453125 42.523438 131.148438 43.699219 130.496094 44.699219 C 129.886719 45.703125 129.058594 46.488281 128.011719 47.140625 C 127.011719 47.75 125.835938 48.230469 124.570312 48.492188 C 123.308594 48.75 122.003906 48.925781 120.695312 48.925781 L 136.203125 63.082031 L 120.261719 63.082031 L 104.449219 48.882812 L 97.261719 48.882812 L 97.261719 63.039062 L 85.761719 63.039062 Z M 85.761719 39.429688 " fill-opacity="1" fill-rule="nonzero"/><path fill="#ffffff" d="M 177.753906 63.039062 L 174.660156 57.59375 L 150.921875 57.59375 L 147.875 63.039062 L 135.636719 63.039062 L 157.109375 22.574219 L 168.519531 22.574219 L 189.992188 63.039062 Z M 162.769531 34.855469 L 155.628906 48.140625 L 170.042969 48.140625 Z M 162.769531 34.855469 " fill-opacity="1" fill-rule="nonzero"/><path fill="#ffffff" d="M 177.753906 22.53125 L 192.78125 22.53125 L 204.976562 35.511719 L 217.042969 22.53125 L 232.070312 22.53125 L 210.640625 45.398438 L 210.640625 63.039062 L 199.140625 63.039062 L 199.140625 45.398438 Z M 177.753906 22.53125 " fill-opacity="1" fill-rule="nonzero"/><path fill="#ffffff" d="M 309.992188 63.039062 L 286.472656 38.429688 L 286.472656 62.996094 L 274.972656 62.996094 L 274.972656 22.53125 L 287.429688 22.53125 L 310.777344 47.316406 L 310.777344 22.53125 L 322.1875 22.53125 L 322.1875 62.996094 L 309.992188 62.996094 Z M 309.992188 63.039062 " fill-opacity="1" fill-rule="nonzero"/><path fill="#ffffff" d="M 260.992188 61.425781 C 260.378906 62.429688 259.292969 62.996094 258.117188 62.996094 L 274.972656 62.996094 L 253.5 22.53125 L 242.085938 22.53125 L 220.613281 62.996094 L 237.425781 62.996094 C 236.25 62.996094 235.207031 62.386719 234.550781 61.425781 C 234.507812 61.382812 234.507812 61.339844 234.464844 61.296875 C 233.855469 60.207031 233.855469 58.945312 234.464844 57.898438 L 237.863281 51.976562 L 242.480469 44.003906 L 242.480469 36.554688 L 242.390625 36.554688 C 242 36.554688 241.695312 36.25 241.695312 35.859375 C 241.695312 35.46875 242 35.164062 242.390625 35.164062 L 253.105469 35.164062 C 253.5 35.164062 253.804688 35.46875 253.804688 35.859375 C 253.804688 36.25 253.5 36.554688 253.105469 36.554688 L 252.933594 36.554688 L 252.933594 43.742188 L 257.679688 51.976562 L 261.121094 57.898438 C 261.730469 58.945312 261.730469 60.25 261.121094 61.296875 C 261.078125 61.339844 261.035156 61.382812 260.992188 61.425781 Z M 260.992188 61.425781 " fill-opacity="1" fill-rule="nonzero"/><path fill="#ffffff" d="M 245.964844 51.929688 C 246.964844 51.929688 247.75 51.148438 247.75 50.144531 C 247.75 49.144531 246.964844 48.359375 245.964844 48.359375 C 244.960938 48.359375 244.179688 49.144531 244.179688 50.144531 C 244.179688 51.105469 244.960938 51.929688 245.964844 51.929688 Z M 245.964844 51.929688 " fill-opacity="1" fill-rule="nonzero"/><path fill="#ffffff" d="M 249.972656 44.960938 C 249.972656 45.140625 249.9375 45.3125 249.867188 45.480469 C 249.800781 45.644531 249.703125 45.789062 249.574219 45.917969 C 249.449219 46.042969 249.300781 46.140625 249.136719 46.210938 C 248.972656 46.277344 248.800781 46.3125 248.621094 46.3125 C 248.441406 46.3125 248.269531 46.277344 248.105469 46.210938 C 247.9375 46.140625 247.792969 46.042969 247.664062 45.917969 C 247.539062 45.789062 247.441406 45.644531 247.375 45.480469 C 247.304688 45.3125 247.269531 45.140625 247.269531 44.960938 C 247.269531 44.785156 247.304688 44.609375 247.375 44.445312 C 247.441406 44.28125 247.539062 44.132812 247.664062 44.007812 C 247.792969 43.882812 247.9375 43.785156 248.105469 43.714844 C 248.269531 43.648438 248.441406 43.613281 248.621094 43.613281 C 248.800781 43.613281 248.972656 43.648438 249.136719 43.714844 C 249.300781 43.785156 249.449219 43.882812 249.574219 44.007812 C 249.703125 44.132812 249.800781 44.28125 249.867188 44.445312 C 249.9375 44.609375 249.972656 44.785156 249.972656 44.960938 Z M 249.972656 44.960938 " fill-opacity="1" fill-rule="nonzero"/><path fill="#ffffff" d="M 247.050781 41.566406 C 247.445312 41.566406 247.792969 41.261719 247.792969 40.824219 C 247.792969 40.433594 247.488281 40.085938 247.050781 40.085938 C 246.660156 40.085938 246.3125 40.390625 246.3125 40.824219 C 246.3125 41.261719 246.617188 41.566406 247.050781 41.566406 Z M 247.050781 41.566406 " fill-opacity="1" fill-rule="nonzero"/><path fill="#ffffff" d="M 258.421875 59.816406 C 258.332031 59.945312 258.246094 59.988281 258.117188 59.988281 L 237.425781 59.988281 C 237.296875 59.988281 237.207031 59.945312 237.121094 59.816406 C 237.035156 59.683594 237.035156 59.554688 237.121094 59.464844 L 241.433594 52.019531 C 241.433594 52.019531 242.390625 52.019531 244.875 53.585938 C 246.703125 54.71875 248.273438 53.28125 249.492188 52.019531 C 249.925781 51.539062 250.320312 51.105469 250.667969 50.84375 C 251.929688 49.839844 253.0625 50.1875 254.109375 52.019531 L 258.421875 59.464844 C 258.507812 59.554688 258.507812 59.683594 258.421875 59.816406 Z M 258.421875 59.816406 " fill-opacity="1" fill-rule="nonzero"/></svg>